<svg xmlns="http://www.w3.org/2000/svg" viewBox="0 0 279.62 276.64"><defs><style>.a{fill:#e30613;}</style></defs><rect class="a" x="278.17" y="129.16" width="28.21" height="10.58" transform="translate(-87.04 157.85) rotate(-42.38)"/><rect class="a" x="287.23" y="120.89" width="28.21" height="10.58" rx="5.29" transform="translate(118.65 -255.75) rotate(47.62)"/><rect class="a" x="272.31" y="289.92" width="28.21" height="10.58" transform="translate(238.64 -189.62) rotate(47.62)"/><rect class="a" x="280.57" y="298.98" width="28.21" height="10.58" rx="5.29" transform="translate(644.66 256.13) rotate(137.62)"/><rect class="a" x="309.46" y="209.18" width="28.21" height="10.58" transform="translate(-62.64 -88.85) rotate(2.62)"/><rect class="a" x="321.71" y="209.74" width="28.21" height="10.58" rx="5.29" transform="translate(493.19 -184.88) rotate(92.62)"/><rect class="a" x="115.63" y="282.06" width="28.21" height="10.58" transform="translate(346.47 337.89) rotate(137.62)"/><rect class="a" x="106.57" y="290.33" width="28.21" height="10.58" rx="5.29" transform="translate(-89.16 509.74) rotate(-132.38)"/><rect class="a" x="86.54" y="199.45" width="28.21" height="10.58" transform="translate(119.04 339.59) rotate(-177.38)"/><rect class="a" x="74.29" y="198.89" width="28.21" height="10.58" rx="5.29" transform="translate(-192.41 208.86) rotate(-87.38)"/><rect class="a" x="120.05" y="122.46" width="28.21" height="10.58" transform="translate(57.42 238.68) rotate(-132.38)"/><rect class="a" x="111.78" y="113.4" width="28.21" height="10.58" rx="5.29" transform="translate(-119.89 41.58) rotate(-42.38)"/><rect class="a" x="198.71" y="318.18" width="28.21" height="10.58" transform="translate(472.89 51.4) rotate(92.62)"/><rect class="a" x="198.15" y="330.44" width="28.21" height="10.58" rx="5.29" transform="translate(336.13 606.53) rotate(-177.38)"/><rect class="a" x="197.58" y="94.44" width="28.21" height="10.58" transform="translate(29.59 232.36) rotate(-87.38)"/><rect class="a" x="198.15" y="82.19" width="28.21" height="10.58" rx="5.29" transform="translate(-68.57 -83.9) rotate(2.62)"/><path class="a" d="M235.61,219a35.85,35.85,0,1,0,35.86,35.85A35.85,35.85,0,0,0,235.61,219Zm0,60.79a24.95,24.95,0,1,1,25.45-24.94A25.19,25.19,0,0,1,235.61,279.76Z" transform="translate(-72.79 -74.28)"/><rect class="a" x="243.53" y="96.84" width="32.9" height="10.58" transform="translate(-15.37 220.18) rotate(-64.96)"/><rect class="a" x="254.36" y="78.68" width="28.21" height="10.58" rx="5.29" transform="translate(-12.02 -180.01) rotate(25.04)"/><rect class="a" x="144.24" y="316.12" width="32.9" height="10.58" transform="translate(447.11 237.57) rotate(115.04)"/><rect class="a" x="138.1" y="334.28" width="28.21" height="10.58" rx="5.29" transform="translate(73.61 637.37) rotate(-154.96)"/><rect class="a" x="240.62" y="318.49" width="32.9" height="10.58" transform="translate(400.84 -102.66) rotate(70.04)"/><rect class="a" x="249.8" y="337.33" width="28.21" height="10.58" rx="5.29" transform="translate(556.14 500.27) rotate(160.04)"/><rect class="a" x="305.38" y="257.45" width="32.9" height="10.58" transform="translate(68.65 -185.79) rotate(25.04)"/><rect class="a" x="325.89" y="265.93" width="28.21" height="10.58" rx="5.29" transform="translate(656.82 3.69) rotate(115.04)"/><rect class="a" x="308.82" y="163.21" width="32.9" height="10.58" transform="translate(-110.77 46.89) rotate(-19.96)"/><rect class="a" x="330" y="156.37" width="28.21" height="10.58" rx="5.29" transform="translate(305.78 -291.25) rotate(70.04)"/><rect class="a" x="153.95" y="96.13" width="32.9" height="10.58" transform="translate(60.45 221.92) rotate(-109.96)"/><rect class="a" x="149.45" y="77.29" width="28.21" height="10.58" rx="5.29" transform="translate(-91.16 -13.48) rotate(-19.96)"/><rect class="a" x="88.22" y="156.46" width="32.9" height="10.58" transform="translate(58.25 278.31) rotate(-154.96)"/><rect class="a" x="72.4" y="147.97" width="28.21" height="10.58" rx="5.29" transform="translate(-161.75 92.5) rotate(-64.96)"/><rect class="a" x="83.48" y="249.53" width="32.9" height="10.58" transform="translate(208.06 385.94) rotate(160.04)"/><rect class="a" x="66.99" y="256.38" width="28.21" height="10.58" rx="5.29" transform="translate(-209.96 352.94) rotate(-109.96)"/><path class="a" d="M212.6,103.09A109.51,109.51,0,1,0,322.1,212.6,109.51,109.51,0,0,0,212.6,103.09Zm0,206.44a96.93,96.93,0,1,1,96.93-96.93A96.93,96.93,0,0,1,212.6,309.53Z" transform="translate(-72.79 -74.28)"/><path class="a" d="M248.81,145.94A24.15,24.15,0,1,0,273,170.08,24.14,24.14,0,0,0,248.81,145.94Zm0,37.07A12.93,12.93,0,1,1,262,170.08,13.06,13.06,0,0,1,248.81,183Z" transform="translate(-72.79 -74.28)"/><path class="a" d="M187.6,149.85c-13.93-6.51-34.3,7.65-45.5,31.63s-9,48.68,4.94,55.19,34.3-7.65,45.5-31.63S201.53,156.35,187.6,149.85Zm-34.39,73.61c-9.88-4.62-11.58-21.88-3.79-38.56s22.12-26.46,32-21.84,11.58,21.88,3.78,38.56S163.09,228.08,153.21,223.46Z" transform="translate(-72.79 -74.28)"/></svg>